<?xml version="1.0" encoding="utf-8"?>
<!-- Generator: Adobe Illustrator 21.0.0, SVG Export Plug-In . SVG Version: 6.00 Build 0)  -->
<svg version="1.1" id="Layer_1" xmlns="http://www.w3.org/2000/svg" xmlns:xlink="http://www.w3.org/1999/xlink" x="0px" y="0px"
	 viewBox="0 0 1417.3 934.4" style="enable-background:new 0 0 1417.3 934.4;" xml:space="preserve">
<g>
	<path d="M1372,379.8h-59.6V265.6c0-28.6-4.9-54.8-12.4-78.1c21-11.9,34.3-34.3,34.3-58.7c0-37.2-30.3-67.5-67.5-67.5
		c-13.2,0-25.7,3.7-36.6,10.8c-34.2-35.3-73.2-57.2-103.1-57.2H291.3c-29.9,0-68.9,22-103.1,57.2c-10.9-7.1-23.4-10.8-36.6-10.8
		c-37.2,0-67.5,30.3-67.5,67.5c0,24.5,13.3,46.8,34.3,58.7C111,210.8,106,237,106,265.6v114.2H46.4c-17.5,0-31.7,14.2-31.7,31.7
		v53.9c0,17.5,14.2,31.7,31.7,31.7H106v172.5c0,28.6,4.9,54.8,12.4,78.1c-21,11.9-34.3,34.3-34.3,58.7c0,37.2,30.3,67.5,67.5,67.5
		c13.2,0,25.7-3.7,36.6-10.8c34.2,35.3,73.2,57.2,103.1,57.2h835.8c29.9,0,68.9-22,103.1-57.2c10.9,7.1,23.4,10.8,36.6,10.8
		c37.2,0,67.5-30.3,67.5-67.5c0-24.5-13.3-46.8-34.3-58.7c7.5-23.3,12.4-49.5,12.4-78.1V497.1h59.6c17.5,0,31.7-14.2,31.7-31.7
		v-53.9C1403.7,394.1,1389.4,379.8,1372,379.8z M1099.6,857.7c-1.7,1.4-3.8,2.1-6,2.1H320.5c-2.2,0-4.3-0.8-6-2.1
		C290.4,838.3,183.3,743,154.3,564.5h102.4c9.3,0,16.9-7.6,16.9-16.9s-7.6-16.9-16.9-16.9H149.9c-0.8-7.5-1.4-15.2-1.8-23
		c0.4-7.2,0.7-14.6,0.9-22h107.8c9.3,0,16.9-7.6,16.9-16.9c0-9.3-7.6-16.9-16.9-16.9h-108c-0.2-4.8-0.4-9.5-0.7-14.2
		c0.6-10.5,1.5-20.7,2.6-30.7h106c9.3,0,16.9-7.6,16.9-16.9c0-9.3-7.6-16.9-16.9-16.9H155.6c30.8-173.5,135.1-266.3,158.9-285.5
		c1.7-1.4,3.8-2.1,6-2.1h773.1c2.2,0,4.3,0.8,6,2.1c23.8,19.2,128.1,112,158.9,285.5h-97.1c-9.3,0-16.9,7.6-16.9,16.9
		c0,9.3,7.6,16.9,16.9,16.9h102c1.6,14.5,2.8,29.5,3.3,45h-105.3c-9.3,0-16.9,7.6-16.9,16.9c0,9.3,7.6,16.9,16.9,16.9H1267
		c-0.3,15.5-1.3,30.5-2.7,45h-102.8c-9.3,0-16.9,7.6-16.9,16.9s7.6,16.9,16.9,16.9h98.4C1230.8,743,1123.7,838.3,1099.6,857.7z
		 M119.7,302.3c4.6,18.3,10,42.7,14.4,70.7h-14.4V302.3z M134.6,376.4c1.3,8.7,2.5,17.7,3.6,27h-18.5v-27H134.6z M119.7,455.3h20.7
		c-0.2,5.7-0.3,11.5-0.3,17.4c0,3.2,0,6.4,0.1,9.6h-20.6V455.3z M148.8,455.3h107.9c7.4,0,13.5,6.1,13.5,13.5
		c0,7.4-6.1,13.5-13.5,13.5H149c0.1-3.2,0.1-6.4,0.1-9.6C149.1,466.8,149,461,148.8,455.3z M140.5,451.8h-20.8v-45h18.9
		c1.1,10,2,20.3,2.6,30.7C140.9,442.3,140.7,447,140.5,451.8z M144.7,399.8c-0.9-8-2-15.8-3.1-23.3h6.5
		C146.8,384.1,145.6,391.8,144.7,399.8z M155,376.4h101.7c7.4,0,13.5,6.1,13.5,13.5c0,7.4-6.1,13.5-13.5,13.5H151.1
		C152.2,394.2,153.5,385.2,155,376.4z M140.3,485.7c0.2,7.4,0.5,14.8,0.9,22c-0.5,7.8-1.1,15.5-1.8,23h-19.7v-45H140.3z
		 M119.7,564.5h15.6c-4.5,31.2-10.5,58.4-15.6,78.4V564.5z M119.7,561.1v-27H139c-0.9,9.3-2.1,18.3-3.3,27H119.7z M144.7,545.5
		c0.7,5.3,1.4,10.5,2.2,15.6h-4.2C143.4,556,144,550.8,144.7,545.5z M150.2,534.1h106.5c7.4,0,13.5,6.1,13.5,13.5
		c0,7.4-6.1,13.5-13.5,13.5h-103C152.4,552.3,151.2,543.3,150.2,534.1z M1298.7,373H1282c5.1-32.8,11.7-60.7,16.7-79.8V373z
		 M1298.7,376.4v27h-20.8c1-9.3,2.3-18.3,3.6-27H1298.7z M1267.1,472.6c0,3.2,0,6.4-0.1,9.6h-105.6c-7.4,0-13.5-6.1-13.5-13.5
		c0-7.4,6.1-13.5,13.5-13.5h105.4C1267,461,1267.1,466.8,1267.1,472.6z M1273.9,481.4c0-2.9,0.1-5.8,0.1-8.8c0-3,0-5.9-0.1-8.8
		c0-2.9,0.1-5.7,0.2-8.6h24.6v27h-24.8C1273.9,482,1273.9,481.7,1273.9,481.4z M1274.2,451.8c0.6-15.4,1.7-30.5,3.3-45h21.2v45
		H1274.2z M1272.8,435.1c-0.6-9.6-1.4-19-2.5-28.2h4.9C1274.2,416.1,1273.4,425.5,1272.8,435.1z M1275.6,403.4h-5.7
		c-1.1-9.2-2.4-18.2-3.9-27h13.1C1277.8,385.1,1276.6,394.2,1275.6,403.4z M1263,403.4h-101.6c-7.4,0-13.5-6.1-13.5-13.5
		c0-7.4,6.1-13.5,13.5-13.5h97.7C1260.6,385.2,1261.9,394.2,1263,403.4z M1272.8,510.2c0.4,6.9,1,13.8,1.7,20.5h-3.3
		C1271.8,523.9,1272.3,517.1,1272.8,510.2z M1161.4,561.1c-7.4,0-13.5-6.1-13.5-13.5c0-7.4,6.1-13.5,13.5-13.5h102.5
		c-1,9.2-2.2,18.2-3.5,27H1161.4z M1270.8,534.1h4c0.9,9.3,2,18.3,3.3,27h-10.7C1268.6,552.3,1269.8,543.3,1270.8,534.1z
		 M1277,534.1h21.6v27h-18.4C1279.1,552.4,1278,543.4,1277,534.1z M1298.7,564.5V652c-5.5-20.6-12.6-51.4-17.9-87.5H1298.7z
		 M1276.7,530.7c-1.4-14.5-2.4-29.6-2.7-45h24.7v45H1276.7z M1266.7,68.1c33.4,0,60.7,27.2,60.7,60.7c0,21.5-11.4,41.3-29.7,52.1
		c-14.5-41.6-36.9-73.3-52.5-92.1c-3.3-4-6.7-7.9-10.2-11.6C1244.5,71.2,1255.3,68.1,1266.7,68.1z M1234.7,97.5
		c23.9,28.7,64,88.8,64,168.1v18.9c-5.3,18.9-13.1,50.4-19,88.5h-14.2c-30.9-176-136.6-270.6-161.3-290.6l33.4-52.9
		C1166.6,34.9,1204.2,60.8,1234.7,97.5z M1127.1,28.5c1,0,2,0,3,0.1l-32,50.6c-1.5-0.4-3-0.7-4.5-0.7H320.5c-0.2,0-0.4,0-0.6,0.1
		l-31.6-50c1-0.1,2-0.1,3-0.1H1127.1z M280.8,29.6l32.1,50.9c-1,0.5-1.9,1.1-2.7,1.7C286,101.7,179.7,196.3,148.7,373H141
		c-6.8-44-16.2-79.4-21.3-96.8v-10.6c0-79.3,40.1-139.4,64-168.1C214.2,60.8,251.7,34.9,280.8,29.6z M91,128.8
		c0-33.4,27.2-60.7,60.7-60.7c11.4,0,22.2,3.1,31.8,9c-3.5,3.7-6.9,7.6-10.2,11.6c-15.7,18.8-38,50.6-52.5,92.1
		C102.4,170.1,91,150.3,91,128.8z M46.4,493.7c-15.6,0-28.3-12.7-28.3-28.3v-53.9c0-15.6,12.7-28.3,28.3-28.3H106v50.2
		c-2.3-11.1-12.2-19.4-24-19.4h-19c-13.5,0-24.5,11-24.5,24.5v1.9c0,13.5,11,24.5,24.5,24.5h19c11.8,0,21.6-8.4,24-19.4v48.2H46.4z
		 M103.1,438.5v1.9c0,11.6-9.5,21.1-21.1,21.1h-19c-11.6,0-21.1-9.5-21.1-21.1v-1.9c0-11.6,9.5-21.1,21.1-21.1h19
		C93.7,417.4,103.1,426.9,103.1,438.5z M151.6,867.1c-33.4,0-60.7-27.2-60.7-60.7c0-21.5,11.4-41.3,29.7-52.1
		c14.5,41.6,36.9,73.3,52.5,92.1c3.3,4,6.7,7.9,10.2,11.6C173.9,864,163,867.1,151.6,867.1z M183.7,837.8
		c-23.9-28.7-64-88.8-64-168.1V669c5.4-18.4,15.6-56.9,22.5-104.5h5.2C176.6,746.2,285.7,843.3,310.2,863c0.8,0.7,1.8,1.2,2.7,1.7
		l-31.5,41C252.3,900.8,214.4,874.7,183.7,837.8z M291.3,906.7c-0.6,0-1.3,0-1.9-0.1l30.8-40c0.1,0,0.3,0,0.4,0h773.1
		c1.4,0,2.8-0.2,4.2-0.6l31.2,40.6c-0.6,0-1.3,0.1-1.9,0.1H291.3z M1137,905.8l-32.9-42.9c24.8-20,133.6-117.1,162.7-298.4h11.8
		c6,41.5,14.6,76,20.2,96.2v8.9c0,79.3-40.1,139.4-64,168.1C1203.9,874.7,1166.1,900.8,1137,905.8z M1327.4,806.5
		c0,33.4-27.2,60.7-60.7,60.7c-11.4,0-22.2-3.1-31.8-9c3.5-3.7,6.9-7.6,10.2-11.6c15.7-18.8,38-50.6,52.5-92.1
		C1315.9,765.2,1327.4,785,1327.4,806.5z M1400.2,465.4c0,15.6-12.7,28.3-28.3,28.3h-59.6v-48.2c2.3,11.1,12.2,19.4,24,19.4h19
		c13.5,0,24.5-11,24.5-24.5v-1.9c0-13.5-11-24.5-24.5-24.5h-19c-11.8,0-21.6,8.3-24,19.4v-50.2h59.6c15.6,0,28.3,12.7,28.3,28.3
		V465.4z M1315.2,440.4v-1.9c0-11.6,9.5-21.1,21.1-21.1h19c11.6,0,21.1,9.5,21.1,21.1v1.9c0,11.6-9.5,21.1-21.1,21.1h-19
		C1324.7,461.5,1315.2,452.1,1315.2,440.4z"/>
	<path d="M357.3,722.6h-24.9c-19.4,0-35.1,15.9-35.1,35.5c0,19.6,15.8,35.5,35.1,35.5h24.9c5.7,0,10.2-4.6,10.2-10.3V733
		C367.6,727.3,363,722.6,357.3,722.6z M364.1,783.3c0,3.8-3.1,6.9-6.8,6.9h-24.9c-17.5,0-31.7-14.4-31.7-32.1S315,726,332.4,726
		h24.9c3.8,0,6.8,3.1,6.8,6.9V783.3z"/>
	<path d="M412.2,722.6h-24.9c-5.7,0-10.2,4.6-10.2,10.3v50.3c0,5.7,4.6,10.3,10.2,10.3h24.9c19.4,0,35.1-15.9,35.1-35.5
		C447.3,738.5,431.5,722.6,412.2,722.6z M412.2,790.2h-24.9c-3.8,0-6.8-3.1-6.8-6.9V733c0-3.8,3.1-6.9,6.8-6.9h24.9
		c17.5,0,31.7,14.4,31.7,32.1S429.6,790.2,412.2,790.2z"/>
	<path d="M580.5,722.6h-24.9c-19.4,0-35.1,15.9-35.1,35.5c0,19.6,15.8,35.5,35.1,35.5h24.9c5.7,0,10.2-4.6,10.2-10.3V733
		C590.8,727.3,586.2,722.6,580.5,722.6z M587.3,783.3c0,3.8-3.1,6.9-6.8,6.9h-24.9c-17.5,0-31.7-14.4-31.7-32.1s14.2-32.1,31.7-32.1
		h24.9c3.8,0,6.8,3.1,6.8,6.9V783.3z"/>
	<path d="M635.4,722.6h-24.9c-5.7,0-10.2,4.6-10.2,10.3v50.3c0,5.7,4.6,10.3,10.2,10.3h24.9c19.4,0,35.1-15.9,35.1-35.5
		C670.5,738.5,654.7,722.6,635.4,722.6z M635.4,790.2h-24.9c-3.8,0-6.8-3.1-6.8-6.9V733c0-3.8,3.1-6.9,6.8-6.9h24.9
		c17.5,0,31.7,14.4,31.7,32.1S652.8,790.2,635.4,790.2z"/>
	<path d="M803.7,722.6h-24.9c-19.4,0-35.1,15.9-35.1,35.5c0,19.6,15.8,35.5,35.1,35.5h24.9c5.6,0,10.2-4.6,10.2-10.3V733
		C813.9,727.3,809.3,722.6,803.7,722.6z M810.5,783.3c0,3.8-3.1,6.9-6.8,6.9h-24.9c-17.5,0-31.7-14.4-31.7-32.1s14.2-32.1,31.7-32.1
		h24.9c3.8,0,6.8,3.1,6.8,6.9V783.3z"/>
	<path d="M858.5,722.6h-24.9c-5.7,0-10.2,4.6-10.2,10.3v50.3c0,5.7,4.6,10.3,10.2,10.3h24.9c19.4,0,35.1-15.9,35.1-35.5
		C893.6,738.5,877.9,722.6,858.5,722.6z M858.5,790.2h-24.9c-3.8,0-6.8-3.1-6.8-6.9V733c0-3.8,3.1-6.9,6.8-6.9h24.9
		c17.5,0,31.7,14.4,31.7,32.1S876,790.2,858.5,790.2z"/>
	<path d="M1026.8,722.6h-24.9c-19.4,0-35.1,15.9-35.1,35.5c0,19.6,15.8,35.5,35.1,35.5h24.9c5.7,0,10.2-4.6,10.2-10.3V733
		C1037.1,727.3,1032.5,722.6,1026.8,722.6z M1033.6,783.3c0,3.8-3.1,6.9-6.8,6.9h-24.9c-17.5,0-31.7-14.4-31.7-32.1
		s14.2-32.1,31.7-32.1h24.9c3.8,0,6.8,3.1,6.8,6.9V783.3z"/>
	<path d="M1081.7,722.6h-24.9c-5.7,0-10.2,4.6-10.2,10.3v50.3c0,5.7,4.6,10.3,10.2,10.3h24.9c19.4,0,35.1-15.9,35.1-35.5
		C1116.8,738.5,1101,722.6,1081.7,722.6z M1081.7,790.2h-24.9c-3.8,0-6.8-3.1-6.8-6.9V733c0-3.8,3.1-6.9,6.8-6.9h24.9
		c17.5,0,31.7,14.4,31.7,32.1S1099.1,790.2,1081.7,790.2z"/>
	<path d="M748.8,162.3c0-21.9-17.8-39.6-39.6-39.6c-21.9,0-39.6,17.8-39.6,39.6v137c0,21.9,17.8,39.6,39.6,39.6
		c21.9,0,39.6-17.8,39.6-39.6V162.3z M742,299.3c0,18.1-14.7,32.8-32.8,32.8s-32.8-14.7-32.8-32.8v-137c0-18.1,14.7-32.8,32.8-32.8
		s32.8,14.7,32.8,32.8V299.3z"/>
	<path d="M840.3,338.9c21.9,0,39.6-17.8,39.6-39.6v-137c0-21.9-17.8-39.6-39.6-39.6c-21.9,0-39.6,17.8-39.6,39.6v137
		C800.7,321.1,818.5,338.9,840.3,338.9z M807.5,162.3c0-18.1,14.7-32.8,32.8-32.8c18.1,0,32.8,14.7,32.8,32.8v137
		c0,18.1-14.7,32.8-32.8,32.8c-18.1,0-32.8-14.7-32.8-32.8V162.3z"/>
	<path d="M578,338.9c21.9,0,39.6-17.8,39.6-39.6v-137c0-21.9-17.8-39.6-39.6-39.6c-21.9,0-39.6,17.8-39.6,39.6v137
		C538.4,321.1,556.2,338.9,578,338.9z M545.2,162.3c0-18.1,14.7-32.8,32.8-32.8c18.1,0,32.8,14.7,32.8,32.8v137
		c0,18.1-14.7,32.8-32.8,32.8c-18.1,0-32.8-14.7-32.8-32.8V162.3z"/>
	<circle cx="709.2" cy="169" r="20.1"/>
	<path d="M709.2,233.4c-14.3,0-26,17.8-26,39.6c0,21.8,11.7,39.6,26,39.6s26-17.8,26-39.6C735.2,251.1,723.5,233.4,709.2,233.4z
		 M709.2,309.2c-12.4,0-22.6-16.2-22.6-36.2c0-20,10.1-36.2,22.6-36.2s22.6,16.2,22.6,36.2C731.7,293,721.6,309.2,709.2,309.2z"/>
	<circle cx="578" cy="169" r="20.1"/>
	<path d="M578,312.6c14.3,0,26-17.8,26-39.6c0-21.8-11.7-39.6-26-39.6c-14.3,0-26,17.8-26,39.6C552,294.8,563.7,312.6,578,312.6z
		 M578,236.8c12.4,0,22.6,16.2,22.6,36.2c0,20-10.1,36.2-22.6,36.2c-12.4,0-22.6-16.2-22.6-36.2C555.4,253,565.6,236.8,578,236.8z"
		/>
	<circle cx="840.3" cy="169" r="20.1"/>
	<path d="M840.3,312.6c14.3,0,26-17.8,26-39.6c0-21.8-11.7-39.6-26-39.6c-14.3,0-26,17.8-26,39.6C814.4,294.8,826,312.6,840.3,312.6
		z M840.3,236.8c12.4,0,22.6,16.2,22.6,36.2c0,20-10.1,36.2-22.6,36.2c-12.4,0-22.6-16.2-22.6-36.2
		C817.8,253,827.9,236.8,840.3,236.8z"/>
	<path d="M575.9,366.8c1.9,0,3.4-1.5,3.4-3.4c0-1.9-1.5-3.4-3.4-3.4h-22.2c-1.9,0-3.4,1.5-3.4,3.4c0,1.9,1.5,3.4,3.4,3.4h7.8v28.5
		h-7.8c-1.9,0-3.4,1.5-3.4,3.4s1.5,3.4,3.4,3.4h22.2c1.9,0,3.4-1.5,3.4-3.4s-1.5-3.4-3.4-3.4h-7.6v-28.5H575.9z"/>
	<path d="M718.6,366.8c1.9,0,3.4-1.5,3.4-3.4c0-1.9-1.5-3.4-3.4-3.4h-37.4c-1.9,0-3.4,1.5-3.4,3.4c0,1.9,1.5,3.4,3.4,3.4h7.9v28.5
		h-7.9c-1.9,0-3.4,1.5-3.4,3.4s1.5,3.4,3.4,3.4h37.4c1.9,0,3.4-1.5,3.4-3.4s-1.5-3.4-3.4-3.4h-7.7v-28.5H718.6z M704.1,395.2H696
		v-28.5h8.1V395.2z"/>
	<path d="M858.7,366.8c1.9,0,3.4-1.5,3.4-3.4c0-1.9-1.5-3.4-3.4-3.4h-50.9c-1.9,0-3.4,1.5-3.4,3.4c0,1.9,1.5,3.4,3.4,3.4h8v28.5h-8
		c-1.9,0-3.4,1.5-3.4,3.4s1.5,3.4,3.4,3.4h50.9c1.9,0,3.4-1.5,3.4-3.4s-1.5-3.4-3.4-3.4h-7.9v-28.5H858.7z M822.7,366.8h7.2v28.5
		h-7.2V366.8z M843.9,395.2h-7.3v-28.5h7.3V395.2z"/>
</g>
</svg>
